<svg width="100%" viewBox="0 0 900 600" fill="none" xmlns="http://www.w3.org/2000/svg">
<g id="146 1" clip-path="url(#clip0_159_2)">
<path id="Vector" d="M334.05 487.466C306.022 448.256 277.318 406.582 239.738 386.055C200.976 364.873 193.828 377.928 191.144 398.683C188.461 419.439 200.42 468.615 253.32 496.595C306.233 524.584 360.275 524.164 334.05 487.466Z" fill="url(#paint0_linear_159_2)"/>
<path id="Vector" d="M735.714 227.823C715.879 232.522 694.9 215.7 694.9 215.7C694.9 215.7 706.096 191.269 725.937 186.584C745.772 181.886 766.745 198.693 766.745 198.693C766.745 198.693 755.549 223.124 735.714 227.823Z" fill="url(#paint1_linear_159_2)"/>
<path id="Vector" d="M742.554 428.136C760.537 440.523 788.01 431.864 788.01 431.864C788.01 431.864 786.309 403.126 768.314 390.752C750.331 378.365 722.87 387.012 722.87 387.012C722.87 387.012 724.571 415.75 742.554 428.136Z" fill="url(#paint2_linear_159_2)"/>
<path id="Vector" d="M132.207 300.561C151.703 320.403 188.159 316.219 188.159 316.219C188.159 316.219 192.983 279.865 173.469 260.035C153.974 240.192 117.536 244.364 117.536 244.364C117.536 244.364 112.712 280.718 132.207 300.561Z" fill="url(#paint3_linear_159_2)"/>
<path id="Vector" d="M700.457 333.317C692.456 333.317 685.969 339.521 685.969 347.175C685.969 354.829 692.456 361.033 700.457 361.033C708.459 361.033 714.945 354.829 714.945 347.175C714.945 339.521 708.459 333.317 700.457 333.317Z" fill="#666AF6"/>
<path id="Vector_6" d="M293.666 420.092C282.881 420.092 274.138 428.553 274.138 438.99C274.138 449.427 282.881 457.888 293.666 457.888C304.451 457.888 313.194 449.427 313.194 438.99C313.194 428.553 304.451 420.092 293.666 420.092Z" fill="#666AF6"/>
<path id="Vector_7" d="M229.698 197.844C221.844 197.844 215.477 191.477 215.477 183.623C215.477 175.769 221.844 169.402 229.698 169.402C237.552 169.402 243.919 175.769 243.919 183.623C243.919 191.477 237.552 197.844 229.698 197.844Z" fill="#666AF6"/>
<path id="Vector" d="M699.975 458.258C693.405 458.258 688.078 452.931 688.078 446.361C688.078 439.79 693.405 434.464 699.975 434.464C706.546 434.464 711.872 439.79 711.872 446.361C711.872 452.931 706.546 458.258 699.975 458.258Z" fill="#E1E4E5"/>
<path id="Vector" d="M202.236 365.637C195.325 365.637 189.722 360.034 189.722 353.123C189.722 346.212 195.325 340.609 202.236 340.609C209.147 340.609 214.75 346.212 214.75 353.123C214.75 360.034 209.147 365.637 202.236 365.637Z" fill="#E1E4E5"/>
<path id="Vector" d="M339.539 507.168C336.134 507.168 333.373 504.407 333.373 501.002C333.373 497.597 336.134 494.836 339.539 494.836C342.944 494.836 345.705 497.597 345.705 501.002C345.705 504.407 342.944 507.168 339.539 507.168Z" fill="#E1E4E5"/>
<path id="Vector" d="M637.535 147.46C632.337 147.46 628.124 143.246 628.124 138.049C628.124 132.851 632.337 128.638 637.535 128.638C642.733 128.638 646.946 132.851 646.946 138.049C646.946 143.246 642.733 147.46 637.535 147.46Z" fill="#E1E4E5"/>
<path id="Vector" d="M268.178 213.063C269.058 216.347 267.109 219.723 263.825 220.603C260.541 221.483 257.166 219.534 256.286 216.25C255.406 212.966 257.355 209.59 260.639 208.71C263.923 207.83 267.298 209.779 268.178 213.063Z" fill="#E1E4E5"/>
<path id="Vector" d="M629.605 305.743C626.126 305.743 623.306 303.487 623.306 300.704C623.306 297.921 626.126 295.665 629.605 295.665C633.084 295.665 635.904 297.921 635.904 300.704C635.904 303.487 633.084 305.743 629.605 305.743Z" fill="#E1E4E5"/>
<path id="Vector_star" d="M776.001 249.398H776.165C777.141 263.224 787.424 263.437 787.424 263.437C787.424 263.437 776.085 263.659 776.085 279.635C776.085 263.659 764.746 263.437 764.746 263.437C764.746 263.437 775.025 263.224 776.001 249.398V249.398ZM328.945 63.3579H329.228C330.909 87.5539 348.618 87.9259 348.618 87.9259C348.618 87.9259 329.09 88.3139 329.09 116.272C329.09 88.3139 309.562 87.9259 309.562 87.9259C309.562 87.9259 327.264 87.5539 328.945 63.3579V63.3579Z" fill="#E1E4E5"/>
<path id="earth" fill-rule="evenodd" clip-rule="evenodd" d="M295.974 222.13C286.701 246.331 282.611 273.127 285.049 301.17C285.89 310.832 287.555 320.404 290.027 329.782L314.247 322.842C319.709 321.277 325.493 321.223 330.984 322.687C336.474 324.151 341.463 327.077 345.421 331.154L386.621 373.596C389.301 376.356 392.543 378.507 396.128 379.903C399.713 381.299 403.556 381.906 407.397 381.684L408.07 381.645C427.614 380.514 443.415 397.351 441.047 416.785L435.839 459.521C438.659 459.91 441.499 460.23 444.357 460.479C453.208 461.248 461.935 461.367 470.496 460.879C466.761 456.942 464.11 452.104 462.802 446.838C461.494 441.571 461.574 436.055 463.033 430.828L471.169 401.693C475.289 386.937 489.459 377.31 504.695 378.915L538.263 382.451C560.682 384.813 573.047 409.111 562.707 428.4C571.426 422.157 579.556 415.132 586.997 407.411L566.653 347.832C565.369 344.07 563.263 340.641 560.49 337.794C557.716 334.947 554.344 332.752 550.617 331.369L513.06 317.43C491.492 309.425 485.574 281.708 501.991 265.593L595.774 173.537C579.977 154.469 560.268 138.705 537.982 127.579L512.371 209.878C510.683 215.303 507.554 220.169 503.318 223.955C499.081 227.742 493.897 230.308 488.317 231.38L421.411 244.233C417.635 244.958 414.059 246.488 410.926 248.718C407.794 250.948 405.178 253.826 403.256 257.157L400.489 261.952C390.718 278.888 368.008 282.868 353.059 270.264L295.974 222.13V222.13ZM431.292 458.83L436.484 416.229C438.505 399.641 425.018 385.269 408.335 386.234L407.663 386.273C403.164 386.533 398.661 385.822 394.461 384.187C390.261 382.552 386.462 380.032 383.323 376.798L342.123 334.356C338.745 330.876 334.486 328.378 329.8 327.129C325.114 325.879 320.176 325.925 315.514 327.261L291.257 334.211C309.926 398.078 364.795 447.808 431.292 458.83V458.83ZM635.465 269.371C639.973 321.227 622.165 368.808 590.555 403.608L571.003 346.347C569.498 341.94 567.032 337.923 563.783 334.587C560.534 331.251 556.583 328.679 552.217 327.059L514.659 313.12C496.25 306.288 491.198 282.629 505.212 268.874L598.675 177.132C619.148 203.179 632.475 234.99 635.465 269.371V269.371ZM297.769 217.631L356.023 266.749C368.782 277.508 388.167 274.111 396.508 259.654L399.274 254.86C401.525 250.958 404.59 247.586 408.26 244.973C411.93 242.36 416.12 240.568 420.544 239.718L487.45 226.866C492.213 225.951 496.638 223.76 500.254 220.528C503.87 217.296 506.541 213.143 507.982 208.512L533.796 125.559C515.923 117.221 496.489 111.836 476.156 110.063C396.031 103.096 326.094 149.427 297.769 217.631V217.631ZM476.54 460.431C504.476 457.881 530.494 448.842 553.079 434.825L557.27 428.537C568.447 411.773 557.818 389.134 537.781 387.023L504.214 383.487C491.209 382.117 479.114 390.334 475.597 402.93L467.461 432.064C466.181 436.647 466.145 441.489 467.356 446.091C468.567 450.693 470.982 454.889 474.352 458.249L476.54 460.431V460.431Z" fill="#666AF6"/>
<path id="Vector" d="M619.349 467.626C627.004 462.383 627.761 450.166 627.761 450.166C627.761 450.166 616.104 446.458 608.451 451.707C600.796 456.95 600.036 469.16 600.036 469.16C600.036 469.16 611.693 472.869 619.349 467.626V467.626Z" fill="#E1E4E5"/>
<path id="Vector" d="M437.456 274.848C433.498 274.848 430.29 278.056 430.29 282.014C430.29 285.972 433.498 289.18 437.456 289.18C441.414 289.18 444.622 285.972 444.622 282.014C444.622 278.056 441.414 274.848 437.456 274.848Z" fill="#666AF6"/>
<path id="Vector_17" d="M590.35 126.093C583.61 126.093 578.146 120.629 578.146 113.889C578.146 107.149 583.61 101.685 590.35 101.685C597.09 101.685 602.554 107.149 602.554 113.889C602.554 120.629 597.09 126.093 590.35 126.093Z" fill="#666AF6"/>
<path id="Vector" d="M756.68 324.36C751.283 324.36 746.908 319.985 746.908 314.588C746.908 309.191 751.283 304.816 756.68 304.816C762.077 304.816 766.452 309.191 766.452 314.588C766.452 319.985 762.077 324.36 756.68 324.36Z" fill="#E1E4E5"/>
<path id="Vector" d="M471.415 522.042C465.665 522.042 461.003 517.38 461.003 511.63C461.003 505.879 465.665 501.218 471.415 501.218C477.165 501.218 481.827 505.879 481.827 511.63C481.827 517.38 477.165 522.042 471.415 522.042Z" fill="#E1E4E5"/>
<path id="Vector" d="M198.578 277.874C193.966 277.874 190.227 274.135 190.227 269.523C190.227 264.911 193.966 261.172 198.578 261.172C203.19 261.172 206.929 264.911 206.929 269.523C206.929 274.135 203.19 277.874 198.578 277.874Z" fill="#E1E4E5"/>
<path id="Vector" d="M699.259 174.34C692.219 174.34 686.512 168.633 686.512 161.593C686.512 154.553 692.219 148.846 699.259 148.846C706.299 148.846 712.006 154.553 712.006 161.593C712.006 168.633 706.299 174.34 699.259 174.34Z" fill="#E1E4E5"/>
<path id="Vector" d="M286.328 153.706C280.202 153.706 275.236 148.74 275.236 142.614C275.236 136.488 280.202 131.522 286.328 131.522C292.454 131.522 297.42 136.488 297.42 142.614C297.42 148.74 292.454 153.706 286.328 153.706Z" fill="#E1E4E5"/>
<path id="Vector" d="M670.358 398.546C665.646 398.546 661.826 395.49 661.826 391.72C661.826 387.95 665.646 384.894 670.358 384.894C675.07 384.894 678.89 387.95 678.89 391.72C678.89 395.49 675.07 398.546 670.358 398.546Z" fill="#E1E4E5"/>
<path id="Vector" d="M565.202 512.88C558.309 516.243 550.569 514.557 547.914 509.115C545.259 503.673 548.695 496.535 555.588 493.172C562.481 489.809 570.221 491.495 572.876 496.937C575.531 502.379 572.095 509.517 565.202 512.88Z" fill="#E1E4E5"/>
<path id="Vector" d="M529.983 74.5657C532.291 83.1795 527.179 92.0335 518.565 94.3416C509.952 96.6497 501.098 91.5378 498.79 82.924C496.481 74.3101 501.593 65.4561 510.207 63.148C518.821 60.8399 527.675 65.9518 529.983 74.5657Z" fill="#E1E4E5"/>
<path id="Vector_star" d="M399.371 469.088H399.594C400.916 487.815 414.844 488.104 414.844 488.104C414.844 488.104 399.486 488.404 399.486 510.043C399.486 488.404 384.128 488.104 384.128 488.104C384.128 488.104 398.049 487.815 399.371 469.088Z" fill="#E1E4E5"/>
<g id="person2">
<path id="Vector_27" d="M473.878 146.433C473.878 120.857 453.144 100.123 427.568 100.123C401.992 100.123 381.258 120.857 381.258 146.433C381.258 172.009 401.992 192.743 427.568 192.743C453.144 192.743 473.878 172.009 473.878 146.433Z" fill="#666AF6" stroke="white" stroke-width="6"/>
<path id="Vector_28" fill-rule="evenodd" clip-rule="evenodd" d="M447.253 164.601V167.497C447.253 169.096 445.973 170.393 444.395 170.393H410.1C408.522 170.393 407.242 169.096 407.242 167.497V164.555C407.242 155.792 417.125 150.098 427.247 150.098C437.37 150.098 447.253 155.795 447.253 164.555M434.42 124.657C438.383 128.619 438.383 135.045 434.42 139.007C430.458 142.97 424.032 142.97 420.07 139.007C416.107 135.045 416.107 128.619 420.07 124.657C424.032 120.694 430.458 120.694 434.42 124.657Z" fill="white"/>
</g>
<g id="person3">
<path id="Vector_29" d="M682.21 261.59C682.21 236.014 661.476 215.28 635.9 215.28C610.324 215.28 589.59 236.014 589.59 261.59C589.59 287.166 610.324 307.9 635.9 307.9C661.476 307.9 682.21 287.166 682.21 261.59Z" fill="#666AF6" stroke="white" stroke-width="6"/>
<path id="Vector_30" fill-rule="evenodd" clip-rule="evenodd" d="M655.584 279.759V282.655C655.584 284.253 654.304 285.551 652.726 285.551H618.431C616.854 285.551 615.573 284.253 615.573 282.655V279.712C615.573 270.949 625.456 265.255 635.579 265.255C645.702 265.255 655.584 270.952 655.584 279.712M642.752 239.814C646.715 243.777 646.715 250.202 642.752 254.165C638.789 258.128 632.364 258.128 628.401 254.165C624.438 250.202 624.438 243.777 628.401 239.814C632.364 235.851 638.789 235.851 642.752 239.814Z" fill="white"/>
</g>
<g id="person1">
<path id="Vector_31" d="M312.525 317.757C312.525 292.181 291.791 271.447 266.215 271.447C240.639 271.447 219.905 292.181 219.905 317.757C219.905 343.333 240.639 364.067 266.215 364.067C291.791 364.067 312.525 343.333 312.525 317.757Z" fill="#666AF6" stroke="white" stroke-width="6"/>
<path id="Vector_32" fill-rule="evenodd" clip-rule="evenodd" d="M285.9 335.926V338.822C285.9 340.421 284.619 341.718 283.042 341.718H248.747C247.169 341.718 245.889 340.421 245.889 338.822V335.88C245.889 327.116 255.772 321.423 265.894 321.423C276.017 321.423 285.9 327.119 285.9 335.88M273.067 295.981C277.03 299.944 277.03 306.369 273.067 310.332C269.104 314.295 262.679 314.295 258.716 310.332C254.753 306.369 254.753 299.944 258.716 295.981C262.679 292.018 269.104 292.018 273.067 295.981Z" fill="white"/>
</g>
</g>
<defs>
<linearGradient id="paint0_linear_159_2" x1="302.754" y1="616.186" x2="210.797" y2="190.932" gradientUnits="userSpaceOnUse">
<stop stop-color="white"/>
<stop offset="1" stop-color="#EEEEEE"/>
</linearGradient>
<linearGradient id="paint1_linear_159_2" x1="661.02" y1="239.506" x2="834.657" y2="157.474" gradientUnits="userSpaceOnUse">
<stop stop-color="white"/>
<stop offset="1" stop-color="#EEEEEE"/>
</linearGradient>
<linearGradient id="paint2_linear_159_2" x1="812.605" y1="468.778" x2="671.048" y2="319.51" gradientUnits="userSpaceOnUse">
<stop stop-color="white"/>
<stop offset="1" stop-color="#EEEEEE"/>
</linearGradient>
<linearGradient id="paint3_linear_159_2" x1="209.99" y1="368.338" x2="69.05" y2="147.401" gradientUnits="userSpaceOnUse">
<stop stop-color="white"/>
<stop offset="1" stop-color="#EEEEEE"/>
</linearGradient>
<clipPath id="clip0_159_2">
<rect width="900" height="600" fill="white"/>
</clipPath>
</defs>
</svg>
